<?xml version="1.0" encoding="utf-8"?>
<!-- Generator: Adobe Illustrator 23.0.0, SVG Export Plug-In . SVG Version: 6.00 Build 0)  -->
<svg version="1.1" id="Livello_1" xmlns="http://www.w3.org/2000/svg" xmlns:xlink="http://www.w3.org/1999/xlink" x="0px" y="0px"
	 viewBox="0 0 768 1366" style="enable-background:new 0 0 768 1366;" xml:space="preserve">
<style type="text/css">
	.st0{fill:#FBB03B;stroke:#000000;stroke-width:0.25;stroke-miterlimit:10;}
</style>
<path class="st0" d="M100.09,148.68c-4.65,0-8.25-1.43-10.8-4.29c-2.55-2.86-3.82-6.91-3.82-12.14c0-5.37,1.29-9.52,3.88-12.45
	c2.59-2.93,6.27-4.39,11.06-4.39c1.54,0,3.09,0.17,4.63,0.5c1.54,0.33,2.75,0.72,3.63,1.17l-1.49,4.13
	c-1.07-0.43-2.25-0.79-3.52-1.07c-1.27-0.28-2.39-0.42-3.37-0.42c-6.52,0-9.79,4.16-9.79,12.48c0,3.95,0.8,6.97,2.39,9.08
	c1.59,2.11,3.95,3.16,7.08,3.16c2.68,0,5.42-0.58,8.23-1.73v4.31C106.06,148.12,103.35,148.68,100.09,148.68z M120.69,148.09h-4.86
	V102.5h4.86V148.09z M130.59,107.28c0-1.11,0.27-1.93,0.82-2.45c0.55-0.52,1.23-0.78,2.05-0.78c0.78,0,1.45,0.26,2.02,0.79
	c0.57,0.53,0.85,1.34,0.85,2.43c0,1.09-0.28,1.91-0.85,2.45c-0.57,0.54-1.24,0.81-2.02,0.81c-0.82,0-1.5-0.27-2.05-0.81
	C130.86,109.19,130.59,108.37,130.59,107.28z M135.86,148.09H131v-32.11h4.86V148.09z M159.01,148.68c-4.65,0-8.25-1.43-10.8-4.29
	c-2.55-2.86-3.82-6.91-3.82-12.14c0-5.37,1.29-9.52,3.88-12.45c2.59-2.93,6.27-4.39,11.06-4.39c1.54,0,3.09,0.17,4.63,0.5
	c1.54,0.33,2.75,0.72,3.63,1.17l-1.49,4.13c-1.07-0.43-2.25-0.79-3.52-1.07c-1.27-0.28-2.39-0.42-3.37-0.42
	c-6.52,0-9.79,4.16-9.79,12.48c0,3.95,0.8,6.97,2.39,9.08c1.59,2.11,3.95,3.16,7.08,3.16c2.68,0,5.42-0.58,8.23-1.73v4.31
	C164.97,148.12,162.27,148.68,159.01,148.68z M187.57,148.68c-4.65,0-8.25-1.43-10.8-4.29c-2.55-2.86-3.82-6.91-3.82-12.14
	c0-5.37,1.29-9.52,3.88-12.45c2.59-2.93,6.27-4.39,11.06-4.39c1.54,0,3.09,0.17,4.63,0.5c1.54,0.33,2.75,0.72,3.63,1.17l-1.49,4.13
	c-1.07-0.43-2.25-0.79-3.52-1.07c-1.27-0.28-2.39-0.42-3.37-0.42c-6.52,0-9.79,4.16-9.79,12.48c0,3.95,0.8,6.97,2.39,9.08
	c1.59,2.11,3.95,3.16,7.08,3.16c2.68,0,5.42-0.58,8.23-1.73v4.31C193.54,148.12,190.83,148.68,187.57,148.68z M223.05,148.09
	l-0.97-4.57h-0.23c-1.6,2.01-3.2,3.37-4.79,4.09c-1.59,0.71-3.58,1.07-5.96,1.07c-3.18,0-5.68-0.82-7.49-2.46
	c-1.81-1.64-2.71-3.97-2.71-7c0-6.48,5.19-9.88,15.56-10.2l5.45-0.18v-1.99c0-2.52-0.54-4.38-1.63-5.58s-2.82-1.8-5.2-1.8
	c-2.68,0-5.7,0.82-9.08,2.46l-1.49-3.72c1.58-0.86,3.31-1.53,5.2-2.02c1.88-0.49,3.77-0.73,5.67-0.73c3.83,0,6.67,0.85,8.51,2.55
	s2.77,4.42,2.77,8.17v21.91H223.05z M212.06,144.66c3.03,0,5.41-0.83,7.13-2.49c1.73-1.66,2.59-3.98,2.59-6.97v-2.9l-4.86,0.21
	c-3.87,0.14-6.66,0.74-8.36,1.8c-1.71,1.06-2.56,2.72-2.56,4.97c0,1.76,0.53,3.1,1.6,4.01C208.66,144.2,210.15,144.66,212.06,144.66
	z M272.97,139.33c0,2.99-1.11,5.29-3.34,6.91c-2.23,1.62-5.35,2.43-9.38,2.43c-4.26,0-7.58-0.67-9.96-2.02v-4.51
	c1.54,0.78,3.2,1.4,4.97,1.85c1.77,0.45,3.47,0.67,5.11,0.67c2.54,0,4.49-0.41,5.86-1.22c1.37-0.81,2.05-2.05,2.05-3.71
	c0-1.25-0.54-2.32-1.63-3.21c-1.08-0.89-3.2-1.94-6.34-3.15c-2.99-1.11-5.11-2.08-6.37-2.92c-1.26-0.83-2.2-1.77-2.81-2.83
	s-0.92-2.31-0.92-3.78c0-2.62,1.06-4.68,3.19-6.2c2.13-1.51,5.05-2.27,8.76-2.27c3.46,0,6.84,0.7,10.14,2.11l-1.73,3.96
	c-3.22-1.33-6.14-1.99-8.76-1.99c-2.3,0-4.04,0.36-5.21,1.08c-1.17,0.72-1.76,1.72-1.76,2.99c0,0.86,0.22,1.59,0.66,2.2
	c0.44,0.61,1.15,1.18,2.12,1.73c0.98,0.55,2.85,1.34,5.63,2.37c3.81,1.39,6.38,2.78,7.72,4.19
	C272.3,135.43,272.97,137.2,272.97,139.33z M285.45,115.98v20.83c0,2.62,0.6,4.57,1.79,5.86c1.19,1.29,3.06,1.93,5.6,1.93
	c3.36,0,5.82-0.92,7.37-2.75c1.55-1.84,2.33-4.83,2.33-8.99v-16.88h4.86v32.11h-4.01l-0.7-4.31h-0.26c-1,1.58-2.38,2.79-4.15,3.63
	c-1.77,0.84-3.78,1.26-6.05,1.26c-3.91,0-6.83-0.93-8.77-2.78c-1.94-1.86-2.92-4.82-2.92-8.91v-21.01H285.45z M343.99,115.98v3.08
	l-5.95,0.7c0.55,0.68,1.04,1.58,1.46,2.68c0.43,1.1,0.64,2.35,0.64,3.74c0,3.15-1.07,5.65-3.22,7.53c-2.15,1.88-5.1,2.81-8.85,2.81
	c-0.96,0-1.86-0.08-2.7-0.23c-2.07,1.09-3.11,2.47-3.11,4.13c0,0.88,0.36,1.53,1.08,1.95c0.72,0.42,1.96,0.63,3.72,0.63h5.68
	c3.48,0,6.15,0.73,8.01,2.2c1.86,1.46,2.8,3.59,2.8,6.39c0,3.55-1.43,6.26-4.28,8.13c-2.85,1.86-7.01,2.8-12.48,2.8
	c-4.2,0-7.44-0.78-9.71-2.34c-2.28-1.56-3.41-3.77-3.41-6.62c0-1.95,0.63-3.64,1.88-5.07c1.25-1.43,3.01-2.39,5.27-2.9
	c-0.82-0.37-1.51-0.95-2.07-1.73c-0.56-0.78-0.83-1.69-0.83-2.72c0-1.17,0.31-2.2,0.94-3.08c0.63-0.88,1.61-1.73,2.96-2.55
	c-1.66-0.68-3.01-1.85-4.06-3.49c-1.04-1.64-1.57-3.52-1.57-5.63c0-3.52,1.05-6.23,3.16-8.13s5.1-2.86,8.96-2.86
	c1.68,0,3.19,0.2,4.54,0.59H343.99z M318.38,153.48c0,1.74,0.73,3.06,2.2,3.96c1.46,0.9,3.56,1.35,6.3,1.35
	c4.08,0,7.1-0.61,9.07-1.83c1.96-1.22,2.94-2.88,2.94-4.97c0-1.74-0.54-2.94-1.61-3.62c-1.07-0.67-3.1-1.01-6.06-1.01h-5.83
	c-2.21,0-3.93,0.53-5.16,1.58S318.38,151.51,318.38,153.48z M321.02,126.26c0,2.25,0.63,3.95,1.9,5.1c1.27,1.15,3.04,1.73,5.3,1.73
	c4.75,0,7.12-2.3,7.12-6.91c0-4.82-2.4-7.24-7.21-7.24c-2.29,0-4.04,0.62-5.27,1.85S321.02,123.84,321.02,126.26z M355.44,148.09
	h-4.86V102.5h4.86V148.09z M365.34,107.28c0-1.11,0.27-1.93,0.82-2.45c0.55-0.52,1.23-0.78,2.05-0.78c0.78,0,1.45,0.26,2.02,0.79
	c0.57,0.53,0.85,1.34,0.85,2.43c0,1.09-0.28,1.91-0.85,2.45c-0.57,0.54-1.24,0.81-2.02,0.81c-0.82,0-1.5-0.27-2.05-0.81
	C365.62,109.19,365.34,108.37,365.34,107.28z M370.62,148.09h-4.86v-32.11h4.86V148.09z M410.08,148.68
	c-4.75,0-8.49-1.45-11.24-4.34c-2.74-2.89-4.12-6.9-4.12-12.04c0-5.18,1.27-9.29,3.82-12.33s5.97-4.57,10.27-4.57
	c4.02,0,7.21,1.32,9.55,3.97c2.34,2.65,3.52,6.14,3.52,10.47v3.08h-22.12c0.1,3.77,1.05,6.63,2.86,8.58
	c1.81,1.95,4.35,2.93,7.63,2.93c3.46,0,6.88-0.72,10.25-2.17v4.34c-1.72,0.74-3.34,1.27-4.88,1.6
	C414.1,148.52,412.25,148.68,410.08,148.68z M408.76,119.47c-2.58,0-4.63,0.84-6.17,2.52c-1.53,1.68-2.44,4-2.71,6.97h16.79
	c0-3.07-0.68-5.42-2.05-7.05C413.25,120.28,411.3,119.47,408.76,119.47z M437.21,148.09l-12.19-32.11h5.21l6.91,19.04
	c1.56,4.45,2.48,7.34,2.75,8.67h0.23c0.21-1.04,0.89-3.18,2.04-6.43s3.71-10.35,7.69-21.28h5.21l-12.19,32.11H437.21z M473.8,148.68
	c-4.75,0-8.49-1.45-11.24-4.34c-2.74-2.89-4.12-6.9-4.12-12.04c0-5.18,1.27-9.29,3.82-12.33s5.97-4.57,10.27-4.57
	c4.02,0,7.21,1.32,9.55,3.97c2.34,2.65,3.52,6.14,3.52,10.47v3.08h-22.12c0.1,3.77,1.05,6.63,2.86,8.58
	c1.81,1.95,4.35,2.93,7.63,2.93c3.46,0,6.88-0.72,10.25-2.17v4.34c-1.72,0.74-3.34,1.27-4.88,1.6
	C477.82,148.52,475.97,148.68,473.8,148.68z M472.48,119.47c-2.58,0-4.63,0.84-6.17,2.52c-1.53,1.68-2.44,4-2.71,6.97h16.79
	c0-3.07-0.68-5.42-2.05-7.05C476.97,120.28,475.02,119.47,472.48,119.47z M515.87,148.09v-20.77c0-2.62-0.6-4.57-1.79-5.86
	s-3.06-1.93-5.6-1.93c-3.36,0-5.82,0.91-7.38,2.72s-2.34,4.81-2.34,8.99v16.85h-4.86v-32.11h3.96l0.79,4.39h0.23
	c1-1.58,2.39-2.81,4.19-3.68c1.8-0.87,3.8-1.3,6.01-1.3c3.87,0,6.78,0.93,8.73,2.8c1.95,1.87,2.93,4.85,2.93,8.95v20.95H515.87z
	 M541.1,144.66c0.86,0,1.69-0.06,2.49-0.19c0.8-0.13,1.44-0.26,1.9-0.4v3.72c-0.53,0.25-1.3,0.46-2.33,0.63
	c-1.03,0.17-1.95,0.25-2.77,0.25c-6.21,0-9.32-3.27-9.32-9.81v-19.1h-4.6v-2.34l4.6-2.02l2.05-6.86h2.81v7.44h9.32v3.78h-9.32v18.9
	c0,1.93,0.46,3.42,1.38,4.45C538.23,144.15,539.49,144.66,541.1,144.66z M551.5,107.28c0-1.11,0.27-1.93,0.82-2.45
	c0.55-0.52,1.23-0.78,2.05-0.78c0.78,0,1.46,0.26,2.02,0.79s0.85,1.34,0.85,2.43c0,1.09-0.28,1.91-0.85,2.45
	c-0.57,0.54-1.24,0.81-2.02,0.81c-0.82,0-1.5-0.27-2.05-0.81C551.77,109.19,551.5,108.37,551.5,107.28z M556.77,148.09h-4.86v-32.11
	h4.86V148.09z M597.61,148.68c-2.09,0-4-0.39-5.73-1.16s-3.18-1.96-4.35-3.56h-0.35c0.23,1.88,0.35,3.65,0.35,5.33v13.21h-4.86
	v-46.52h3.96l0.67,4.39h0.23c1.25-1.76,2.71-3.03,4.37-3.81c1.66-0.78,3.56-1.17,5.71-1.17c4.26,0,7.54,1.46,9.86,4.37
	c2.31,2.91,3.47,6.99,3.47,12.25c0,5.27-1.18,9.37-3.53,12.29C605.05,147.22,601.79,148.68,597.61,148.68z M596.91,119.53
	c-3.28,0-5.65,0.91-7.12,2.72s-2.22,4.71-2.26,8.67v1.08c0,4.51,0.75,7.74,2.26,9.68c1.5,1.94,3.92,2.92,7.24,2.92
	c2.77,0,4.95-1.12,6.52-3.37c1.57-2.25,2.36-5.34,2.36-9.29c0-4-0.79-7.08-2.36-9.21C601.97,120.6,599.76,119.53,596.91,119.53z
	 M633,148.68c-4.75,0-8.49-1.45-11.24-4.34c-2.74-2.89-4.12-6.9-4.12-12.04c0-5.18,1.27-9.29,3.82-12.33s5.97-4.57,10.27-4.57
	c4.02,0,7.21,1.32,9.55,3.97c2.34,2.65,3.52,6.14,3.52,10.47v3.08h-22.12c0.1,3.77,1.05,6.63,2.86,8.58
	c1.81,1.95,4.35,2.93,7.63,2.93c3.46,0,6.88-0.72,10.25-2.17v4.34c-1.72,0.74-3.34,1.27-4.88,1.6S635.17,148.68,633,148.68z
	 M631.68,119.47c-2.58,0-4.63,0.84-6.17,2.52c-1.53,1.68-2.44,4-2.71,6.97h16.79c0-3.07-0.68-5.42-2.05-7.05
	C636.17,120.28,634.22,119.47,631.68,119.47z M667.75,115.4c1.43,0,2.71,0.12,3.84,0.35l-0.67,4.51c-1.33-0.29-2.5-0.44-3.52-0.44
	c-2.6,0-4.82,1.05-6.67,3.16s-2.77,4.74-2.77,7.88v17.23h-4.86v-32.11h4.01l0.56,5.95h0.23c1.19-2.09,2.63-3.7,4.31-4.83
	C663.89,115.96,665.73,115.4,667.75,115.4z M72.35,220.09l-0.97-4.57h-0.23c-1.6,2.01-3.2,3.37-4.79,4.09
	c-1.59,0.71-3.58,1.07-5.96,1.07c-3.18,0-5.68-0.82-7.49-2.46c-1.81-1.64-2.71-3.97-2.71-7c0-6.48,5.19-9.88,15.56-10.2l5.45-0.18
	v-1.99c0-2.52-0.54-4.38-1.63-5.58s-2.82-1.8-5.2-1.8c-2.68,0-5.7,0.82-9.08,2.46l-1.49-3.72c1.58-0.86,3.31-1.53,5.2-2.02
	c1.88-0.49,3.77-0.73,5.67-0.73c3.83,0,6.67,0.85,8.51,2.55s2.77,4.42,2.77,8.17v21.91H72.35z M61.36,216.66
	c3.03,0,5.41-0.83,7.13-2.49s2.59-3.98,2.59-6.97v-2.9l-4.86,0.21c-3.87,0.14-6.66,0.74-8.36,1.8c-1.71,1.06-2.56,2.72-2.56,4.97
	c0,1.76,0.53,3.1,1.6,4.01C57.96,216.2,59.44,216.66,61.36,216.66z M112.25,187.98v3.08l-5.95,0.7c0.55,0.68,1.04,1.58,1.46,2.68
	c0.43,1.1,0.64,2.35,0.64,3.74c0,3.14-1.07,5.65-3.22,7.53c-2.15,1.88-5.1,2.81-8.85,2.81c-0.96,0-1.86-0.08-2.7-0.23
	c-2.07,1.09-3.11,2.47-3.11,4.13c0,0.88,0.36,1.53,1.08,1.95c0.72,0.42,1.96,0.63,3.72,0.63h5.68c3.48,0,6.15,0.73,8.01,2.2
	c1.86,1.46,2.8,3.59,2.8,6.39c0,3.55-1.43,6.26-4.28,8.13c-2.85,1.87-7.01,2.8-12.48,2.8c-4.2,0-7.44-0.78-9.71-2.34
	c-2.28-1.56-3.41-3.77-3.41-6.62c0-1.95,0.63-3.64,1.88-5.07c1.25-1.43,3.01-2.39,5.27-2.9c-0.82-0.37-1.51-0.95-2.07-1.73
	s-0.83-1.69-0.83-2.72c0-1.17,0.31-2.2,0.94-3.08c0.63-0.88,1.61-1.73,2.96-2.55c-1.66-0.68-3.01-1.85-4.06-3.49
	c-1.04-1.64-1.57-3.52-1.57-5.63c0-3.52,1.05-6.23,3.16-8.13s5.1-2.86,8.96-2.86c1.68,0,3.19,0.2,4.54,0.59H112.25z M86.64,225.48
	c0,1.74,0.73,3.06,2.2,3.96s3.56,1.35,6.3,1.35c4.08,0,7.1-0.61,9.07-1.83s2.94-2.88,2.94-4.97c0-1.74-0.54-2.94-1.61-3.62
	c-1.07-0.67-3.1-1.01-6.06-1.01h-5.83c-2.21,0-3.93,0.53-5.16,1.58S86.64,223.51,86.64,225.48z M89.28,198.26
	c0,2.25,0.63,3.95,1.9,5.1c1.27,1.15,3.04,1.73,5.3,1.73c4.75,0,7.12-2.3,7.12-6.91c0-4.82-2.4-7.24-7.21-7.24
	c-2.29,0-4.04,0.62-5.27,1.85S89.28,195.84,89.28,198.26z M145.12,187.98v3.08l-5.95,0.7c0.55,0.68,1.04,1.58,1.46,2.68
	c0.43,1.1,0.64,2.35,0.64,3.74c0,3.14-1.07,5.65-3.22,7.53c-2.15,1.88-5.1,2.81-8.85,2.81c-0.96,0-1.86-0.08-2.7-0.23
	c-2.07,1.09-3.11,2.47-3.11,4.13c0,0.88,0.36,1.53,1.08,1.95c0.72,0.42,1.96,0.63,3.72,0.63h5.68c3.48,0,6.15,0.73,8.01,2.2
	c1.86,1.46,2.8,3.59,2.8,6.39c0,3.55-1.43,6.26-4.28,8.13c-2.85,1.87-7.01,2.8-12.48,2.8c-4.2,0-7.44-0.78-9.71-2.34
	c-2.28-1.56-3.41-3.77-3.41-6.62c0-1.95,0.63-3.64,1.88-5.07c1.25-1.43,3.01-2.39,5.27-2.9c-0.82-0.37-1.51-0.95-2.07-1.73
	s-0.83-1.69-0.83-2.72c0-1.17,0.31-2.2,0.94-3.08c0.63-0.88,1.61-1.73,2.96-2.55c-1.66-0.68-3.01-1.85-4.06-3.49
	c-1.04-1.64-1.57-3.52-1.57-5.63c0-3.52,1.05-6.23,3.16-8.13s5.1-2.86,8.96-2.86c1.68,0,3.19,0.2,4.54,0.59H145.12z M119.51,225.48
	c0,1.74,0.73,3.06,2.2,3.96s3.56,1.35,6.3,1.35c4.08,0,7.1-0.61,9.07-1.83s2.94-2.88,2.94-4.97c0-1.74-0.54-2.94-1.61-3.62
	c-1.07-0.67-3.1-1.01-6.06-1.01h-5.83c-2.21,0-3.93,0.53-5.16,1.58S119.51,223.51,119.51,225.48z M122.15,198.26
	c0,2.25,0.63,3.95,1.9,5.1c1.27,1.15,3.04,1.73,5.3,1.73c4.75,0,7.12-2.3,7.12-6.91c0-4.82-2.4-7.24-7.21-7.24
	c-2.29,0-4.04,0.62-5.27,1.85S122.15,195.84,122.15,198.26z M151.3,179.28c0-1.11,0.27-1.93,0.82-2.45
	c0.55-0.52,1.23-0.78,2.05-0.78c0.78,0,1.45,0.26,2.02,0.79c0.57,0.53,0.85,1.34,0.85,2.43s-0.28,1.91-0.85,2.45
	c-0.57,0.54-1.24,0.81-2.02,0.81c-0.82,0-1.5-0.27-2.05-0.81C151.57,181.19,151.3,180.37,151.3,179.28z M156.57,220.09h-4.86v-32.11
	h4.86V220.09z M171.46,187.98v20.83c0,2.62,0.6,4.57,1.79,5.86c1.19,1.29,3.06,1.93,5.6,1.93c3.36,0,5.82-0.92,7.37-2.75
	s2.33-4.83,2.33-8.99v-16.88h4.86v32.11h-4.01l-0.7-4.31h-0.26c-1,1.58-2.38,2.79-4.15,3.63c-1.77,0.84-3.78,1.26-6.05,1.26
	c-3.91,0-6.83-0.93-8.77-2.78c-1.94-1.86-2.92-4.82-2.92-8.91v-21.01H171.46z M225.69,220.09v-20.77c0-2.62-0.6-4.57-1.79-5.86
	c-1.19-1.29-3.06-1.93-5.6-1.93c-3.36,0-5.82,0.91-7.38,2.72c-1.56,1.82-2.34,4.81-2.34,8.99v16.85h-4.86v-32.11h3.96l0.79,4.39
	h0.23c1-1.58,2.39-2.81,4.19-3.68c1.8-0.87,3.8-1.3,6.01-1.3c3.87,0,6.78,0.93,8.73,2.8c1.95,1.87,2.93,4.85,2.93,8.95v20.95H225.69
	z M266.82,187.98v3.08l-5.95,0.7c0.55,0.68,1.04,1.58,1.46,2.68c0.43,1.1,0.64,2.35,0.64,3.74c0,3.14-1.07,5.65-3.22,7.53
	c-2.15,1.88-5.1,2.81-8.85,2.81c-0.96,0-1.86-0.08-2.7-0.23c-2.07,1.09-3.11,2.47-3.11,4.13c0,0.88,0.36,1.53,1.08,1.95
	c0.72,0.42,1.96,0.63,3.72,0.63h5.68c3.48,0,6.15,0.73,8.01,2.2c1.86,1.46,2.8,3.59,2.8,6.39c0,3.55-1.43,6.26-4.28,8.13
	c-2.85,1.87-7.01,2.8-12.48,2.8c-4.2,0-7.44-0.78-9.71-2.34c-2.28-1.56-3.41-3.77-3.41-6.62c0-1.95,0.63-3.64,1.88-5.07
	c1.25-1.43,3.01-2.39,5.27-2.9c-0.82-0.37-1.51-0.95-2.07-1.73s-0.83-1.69-0.83-2.72c0-1.17,0.31-2.2,0.94-3.08
	c0.63-0.88,1.61-1.73,2.96-2.55c-1.66-0.68-3.01-1.85-4.06-3.49c-1.04-1.64-1.57-3.52-1.57-5.63c0-3.52,1.05-6.23,3.16-8.13
	s5.1-2.86,8.96-2.86c1.68,0,3.19,0.2,4.54,0.59H266.82z M241.21,225.48c0,1.74,0.73,3.06,2.2,3.96s3.56,1.35,6.3,1.35
	c4.08,0,7.1-0.61,9.07-1.83s2.94-2.88,2.94-4.97c0-1.74-0.54-2.94-1.61-3.62c-1.07-0.67-3.1-1.01-6.06-1.01h-5.83
	c-2.21,0-3.93,0.53-5.16,1.58S241.21,223.51,241.21,225.48z M243.85,198.26c0,2.25,0.63,3.95,1.9,5.1c1.27,1.15,3.04,1.73,5.3,1.73
	c4.75,0,7.12-2.3,7.12-6.91c0-4.82-2.4-7.24-7.21-7.24c-2.29,0-4.04,0.62-5.27,1.85S243.85,195.84,243.85,198.26z M286.97,220.68
	c-4.75,0-8.49-1.45-11.24-4.34c-2.74-2.89-4.12-6.9-4.12-12.04c0-5.18,1.27-9.29,3.82-12.33s5.97-4.57,10.27-4.57
	c4.02,0,7.21,1.32,9.55,3.97s3.52,6.14,3.52,10.47v3.08h-22.12c0.1,3.77,1.05,6.63,2.86,8.58c1.81,1.95,4.35,2.93,7.63,2.93
	c3.46,0,6.87-0.72,10.25-2.17v4.34c-1.72,0.74-3.34,1.27-4.88,1.6C290.99,220.52,289.14,220.68,286.97,220.68z M285.66,191.47
	c-2.58,0-4.63,0.84-6.17,2.52c-1.53,1.68-2.44,4-2.71,6.97h16.79c0-3.07-0.68-5.42-2.05-7.05
	C290.15,192.28,288.19,191.47,285.66,191.47z M321.72,187.4c1.43,0,2.71,0.12,3.84,0.35l-0.67,4.51c-1.33-0.29-2.5-0.44-3.52-0.44
	c-2.6,0-4.82,1.05-6.67,3.16s-2.77,4.74-2.77,7.88v17.23h-4.86v-32.11h4.01l0.56,5.95h0.23c1.19-2.09,2.63-3.7,4.31-4.83
	C317.86,187.96,319.71,187.4,321.72,187.4z M336.43,220.09h-4.86V174.5h4.86V220.09z M346.33,179.28c0-1.11,0.27-1.93,0.82-2.45
	c0.55-0.52,1.23-0.78,2.05-0.78c0.78,0,1.45,0.26,2.02,0.79c0.57,0.53,0.85,1.34,0.85,2.43s-0.28,1.91-0.85,2.45
	c-0.57,0.54-1.24,0.81-2.02,0.81c-0.82,0-1.5-0.27-2.05-0.81C346.6,181.19,346.33,180.37,346.33,179.28z M351.6,220.09h-4.86v-32.11
	h4.86V220.09z M387.87,216.66c0.86,0,1.69-0.06,2.49-0.19s1.44-0.26,1.9-0.4v3.72c-0.53,0.25-1.3,0.46-2.33,0.63
	s-1.95,0.25-2.77,0.25c-6.21,0-9.32-3.27-9.32-9.81v-19.1h-4.6v-2.34l4.6-2.02l2.05-6.86h2.81v7.44h9.32v3.78h-9.32v18.9
	c0,1.93,0.46,3.42,1.38,4.45C385.01,216.15,386.27,216.66,387.87,216.66z M413.33,187.4c1.43,0,2.71,0.12,3.84,0.35l-0.67,4.51
	c-1.33-0.29-2.5-0.44-3.52-0.44c-2.6,0-4.82,1.05-6.67,3.16s-2.77,4.74-2.77,7.88v17.23h-4.86v-32.11h4.01l0.56,5.95h0.23
	c1.19-2.09,2.63-3.7,4.31-4.83S411.32,187.4,413.33,187.4z M442.92,220.09l-0.97-4.57h-0.23c-1.6,2.01-3.2,3.37-4.79,4.09
	c-1.59,0.71-3.58,1.07-5.96,1.07c-3.18,0-5.68-0.82-7.49-2.46c-1.81-1.64-2.71-3.97-2.71-7c0-6.48,5.19-9.88,15.56-10.2l5.45-0.18
	v-1.99c0-2.52-0.54-4.38-1.63-5.58s-2.82-1.8-5.2-1.8c-2.68,0-5.7,0.82-9.08,2.46l-1.49-3.72c1.58-0.86,3.31-1.53,5.2-2.02
	c1.88-0.49,3.77-0.73,5.67-0.73c3.83,0,6.67,0.85,8.51,2.55s2.77,4.42,2.77,8.17v21.91H442.92z M431.94,216.66
	c3.03,0,5.41-0.83,7.13-2.49s2.59-3.98,2.59-6.97v-2.9l-4.86,0.21c-3.87,0.14-6.66,0.74-8.36,1.8c-1.71,1.06-2.56,2.72-2.56,4.97
	c0,1.76,0.53,3.1,1.6,4.01C428.53,216.2,430.02,216.66,431.94,216.66z M471.72,179.28c0-1.11,0.27-1.93,0.82-2.45
	s1.23-0.78,2.05-0.78c0.78,0,1.46,0.26,2.02,0.79s0.85,1.34,0.85,2.43s-0.28,1.91-0.85,2.45s-1.24,0.81-2.02,0.81
	c-0.82,0-1.5-0.27-2.05-0.81S471.72,180.37,471.72,179.28z M476.99,220.09h-4.86v-32.11h4.86V220.09z M517.83,220.68
	c-2.09,0-4-0.39-5.73-1.16s-3.18-1.96-4.35-3.56h-0.35c0.23,1.88,0.35,3.65,0.35,5.33v13.21h-4.86v-46.52h3.96l0.67,4.39h0.23
	c1.25-1.76,2.71-3.03,4.37-3.81s3.56-1.17,5.71-1.17c4.26,0,7.54,1.46,9.86,4.37s3.47,6.99,3.47,12.25c0,5.27-1.18,9.37-3.53,12.29
	C525.28,219.22,522.01,220.68,517.83,220.68z M517.13,191.53c-3.28,0-5.65,0.91-7.12,2.72s-2.22,4.71-2.26,8.67v1.08
	c0,4.51,0.75,7.74,2.26,9.68s3.92,2.92,7.24,2.92c2.77,0,4.95-1.12,6.52-3.37c1.57-2.25,2.36-5.34,2.36-9.29
	c0-4-0.79-7.08-2.36-9.21C522.19,192.6,519.98,191.53,517.13,191.53z M554.31,187.4c1.43,0,2.71,0.12,3.84,0.35l-0.67,4.51
	c-1.33-0.29-2.5-0.44-3.52-0.44c-2.6,0-4.82,1.05-6.67,3.16s-2.77,4.74-2.77,7.88v17.23h-4.86v-32.11h4.01l0.56,5.95h0.23
	c1.19-2.09,2.63-3.7,4.31-4.83S552.3,187.4,554.31,187.4z M577.72,220.68c-4.75,0-8.49-1.45-11.24-4.34
	c-2.74-2.89-4.12-6.9-4.12-12.04c0-5.18,1.27-9.29,3.82-12.33s5.97-4.57,10.27-4.57c4.02,0,7.21,1.32,9.55,3.97
	s3.52,6.14,3.52,10.47v3.08H567.4c0.1,3.77,1.05,6.63,2.86,8.58c1.81,1.95,4.35,2.93,7.63,2.93c3.46,0,6.88-0.72,10.25-2.17v4.34
	c-1.72,0.74-3.34,1.27-4.88,1.6C581.73,220.52,579.88,220.68,577.72,220.68z M576.4,191.47c-2.58,0-4.63,0.84-6.17,2.52
	c-1.53,1.68-2.44,4-2.71,6.97h16.79c0-3.07-0.68-5.42-2.05-7.05S578.94,191.47,576.4,191.47z M612.29,191.76h-8.17v28.33h-4.86
	v-28.33h-5.74v-2.2l5.74-1.76v-1.79c0-7.89,3.45-11.84,10.34-11.84c1.7,0,3.69,0.34,5.98,1.03l-1.26,3.9
	c-1.88-0.61-3.48-0.91-4.8-0.91c-1.84,0-3.19,0.61-4.07,1.83s-1.32,3.18-1.32,5.87v2.08h8.17V191.76z M631.71,220.68
	c-4.75,0-8.49-1.45-11.24-4.34s-4.12-6.9-4.12-12.04c0-5.18,1.27-9.29,3.82-12.33s5.97-4.57,10.27-4.57c4.02,0,7.21,1.32,9.55,3.97
	s3.52,6.14,3.52,10.47v3.08H621.4c0.1,3.77,1.05,6.63,2.86,8.58s4.35,2.93,7.63,2.93c3.46,0,6.88-0.72,10.25-2.17v4.34
	c-1.72,0.74-3.34,1.27-4.88,1.6S633.88,220.68,631.71,220.68z M630.39,191.47c-2.58,0-4.63,0.84-6.17,2.52s-2.44,4-2.71,6.97h16.79
	c0-3.07-0.68-5.42-2.05-7.05S632.93,191.47,630.39,191.47z M666.46,187.4c1.43,0,2.71,0.12,3.84,0.35l-0.67,4.51
	c-1.33-0.29-2.5-0.44-3.52-0.44c-2.6,0-4.82,1.05-6.67,3.16s-2.77,4.74-2.77,7.88v17.23h-4.86v-32.11h4.01l0.56,5.95h0.23
	c1.19-2.09,2.63-3.7,4.31-4.83S664.45,187.4,666.46,187.4z M675.89,179.28c0-1.11,0.27-1.93,0.82-2.45s1.23-0.78,2.05-0.78
	c0.78,0,1.46,0.26,2.02,0.79s0.85,1.34,0.85,2.43s-0.28,1.91-0.85,2.45s-1.24,0.81-2.02,0.81c-0.82,0-1.5-0.27-2.05-0.81
	S675.89,180.37,675.89,179.28z M681.16,220.09h-4.86v-32.11h4.86V220.09z M701.85,216.66c0.86,0,1.69-0.06,2.49-0.19
	s1.44-0.26,1.9-0.4v3.72c-0.53,0.25-1.3,0.46-2.33,0.63s-1.95,0.25-2.77,0.25c-6.21,0-9.32-3.27-9.32-9.81v-19.1h-4.6v-2.34
	l4.6-2.02l2.05-6.86h2.81v7.44h9.32v3.78h-9.32v18.9c0,1.93,0.46,3.42,1.38,4.45S700.25,216.66,701.85,216.66z M712.25,179.28
	c0-1.11,0.27-1.93,0.82-2.45s1.23-0.78,2.05-0.78c0.78,0,1.46,0.26,2.02,0.79s0.85,1.34,0.85,2.43s-0.28,1.91-0.85,2.45
	s-1.24,0.81-2.02,0.81c-0.82,0-1.5-0.27-2.05-0.81S712.25,180.37,712.25,179.28z M717.52,220.09h-4.86v-32.11h4.86V220.09z"/>
<path class="st0" d="M384,334c-41.97,0-76,34.03-76,76s34.03,76,76,76s76-34.03,76-76S425.97,334,384,334z M383.5,474
	c-35.62,0-64.5-28.88-64.5-64.5s28.88-64.5,64.5-64.5s64.5,28.88,64.5,64.5S419.12,474,383.5,474z"/>
<polygon class="st0" points="422,405 389,405 389,372 379,372 379,405 347,405 347,415 379,415 379,447 389,447 389,415 422,415 "/>
</svg>
