<?xml version="1.0" encoding="utf-8"?>
<!-- Generator: Adobe Illustrator 21.0.0, SVG Export Plug-In . SVG Version: 6.00 Build 0)  -->
<svg version="1.1" id="Livello_1" xmlns="http://www.w3.org/2000/svg" xmlns:xlink="http://www.w3.org/1999/xlink" x="0px" y="0px"
	 viewBox="0 0 512 512" style="enable-background:new 0 0 512 512;" xml:space="preserve">
<style type="text/css">
	.st0{fill:#5C6B78;}
</style>
<path class="st0" d="M32,384h272v32H32V384z M400,384h80v32h-80V384z M384,447.5c0,17.9-14.3,32.5-32,32.5s-32-14.6-32-32.5v-95
	c0-17.9,14.3-32.5,32-32.5s32,14.6,32,32.5V447.5z"/>
<g>
	<path class="st0" d="M32,240h80v32H32V240z M208,240h272v32H208V240z M192,303.5c0,17.9-14.3,32.5-32,32.5s-32-14.6-32-32.5v-95
		c0-17.9,14.3-32.5,32-32.5s32,14.6,32,32.5V303.5z"/>
</g>
<g>
	<path class="st0" d="M32,96h272v32H32V96z M400,96h80v32h-80V96z M384,159.5c0,17.9-14.3,32.5-32,32.5s-32-14.6-32-32.5v-95
		c0-17.9,14.3-32.5,32-32.5s32,14.6,32,32.5V159.5z"/>
</g>
</svg>
