<?xml version="1.0" encoding="utf-8"?>
<!-- Generator: Adobe Illustrator 21.0.0, SVG Export Plug-In . SVG Version: 6.00 Build 0)  -->
<svg version="1.1" id="Livello_1" xmlns="http://www.w3.org/2000/svg" xmlns:xlink="http://www.w3.org/1999/xlink" x="0px" y="0px"
	 viewBox="0 0 512 512" style="enable-background:new 0 0 512 512;" xml:space="preserve">
<style type="text/css">
	.st0{fill:#5C6B78;}
</style>
<path class="st0" d="M256,48C141.6,48,48,141.6,48,256s93.6,208,208,208s208-93.6,208-208S370.4,48,256,48z M256,110.4
	c34.3,0,62.4,28.1,62.4,62.4s-28.1,62.4-62.4,62.4s-62.4-28.1-62.4-62.4S221.7,110.4,256,110.4L256,110.4z M256,410.8
	c-52,0-97.8-27-124.8-66.6c1-41.6,83.2-64.5,124.8-64.5s123.8,22.9,124.8,64.5C353.8,383.7,308,410.8,256,410.8L256,410.8z"/>
</svg>
